<?xml version="1.0" encoding="UTF-8" standalone="no"?>
<!DOCTYPE svg PUBLIC "-//W3C//DTD SVG 1.0//EN"
 "http://www.w3.org/TR/2001/REC-SVG-20010904/DTD/svg10.dtd">
<!-- Generated by dot version 1.12 (Mon Oct  4 13:21:38 UTC 2004)
     For user: (martin) Martin Bravenboer   Title: Term    Pages: 1 -->
<svg width="279px" height="373px"
 viewBox = "-1 -1 209 279"
 xmlns="http://www.w3.org/2000/svg">
<g id="graph0" class="graph" style="font-family:Times-Roman;font-size:14.00;">
<title>Term</title>
<g id="node1" class="node"><title>a_0</title>
<ellipse cx="140" cy="30" rx="33" ry="18" style="fill:none;stroke:black;"/>
<text text-anchor="middle" x="140" y="35">Times</text>
</g>
<g id="node3" class="node"><title>c_0</title>
<ellipse cx="104" cy="102" rx="27" ry="18" style="fill:none;stroke:black;"/>
<text text-anchor="middle" x="104" y="107">Plus</text>
</g>
<g id="edge2" class="edge"><title>a_0-&gt;c_0</title>
<path style="fill:none;stroke:black;" d="M131,47C127,56 122,66 117,76"/>
<polygon style="fill:black;stroke:black;" points="120,77 113,85 114,74 120,77"/>
</g>
<g id="node5" class="node"><title>d_0</title>
<ellipse cx="176" cy="102" rx="27" ry="18" style="fill:none;stroke:black;"/>
<text text-anchor="middle" x="176" y="107">Int</text>
</g>
<g id="edge4" class="edge"><title>a_0-&gt;d_0</title>
<path style="fill:none;stroke:black;" d="M149,47C153,56 158,66 163,76"/>
<polygon style="fill:black;stroke:black;" points="166,74 167,85 160,77 166,74"/>
</g>
<g id="node7" class="node"><title>f_0</title>
<ellipse cx="32" cy="174" rx="27" ry="18" style="fill:none;stroke:black;"/>
<text text-anchor="middle" x="32" y="179">Var</text>
</g>
<g id="edge6" class="edge"><title>c_0-&gt;f_0</title>
<path style="fill:none;stroke:black;" d="M89,117C79,127 66,140 54,152"/>
<polygon style="fill:black;stroke:black;" points="57,154 47,159 52,149 57,154"/>
</g>
<g id="node9" class="node"><title>g_0</title>
<ellipse cx="104" cy="174" rx="27" ry="18" style="fill:none;stroke:black;"/>
<text text-anchor="middle" x="104" y="179">Var</text>
</g>
<g id="edge8" class="edge"><title>c_0-&gt;g_0</title>
<path style="fill:none;stroke:black;" d="M104,120C104,128 104,137 104,146"/>
<polygon style="fill:black;stroke:black;" points="108,146 104,156 101,146 108,146"/>
</g>
<g id="node15" class="node"><title>l_0</title>
<ellipse cx="176" cy="174" rx="27" ry="18" style="fill:none;stroke:black;"/>
<text text-anchor="middle" x="176" y="179">&quot;1&quot;</text>
</g>
<g id="edge14" class="edge"><title>d_0-&gt;l_0</title>
<path style="fill:none;stroke:black;" d="M176,120C176,128 176,137 176,146"/>
<polygon style="fill:black;stroke:black;" points="180,146 176,156 173,146 180,146"/>
</g>
<g id="node11" class="node"><title>i_0</title>
<ellipse cx="32" cy="246" rx="27" ry="18" style="fill:none;stroke:black;"/>
<text text-anchor="middle" x="32" y="251">&quot;a&quot;</text>
</g>
<g id="edge10" class="edge"><title>f_0-&gt;i_0</title>
<path style="fill:none;stroke:black;" d="M32,192C32,200 32,209 32,218"/>
<polygon style="fill:black;stroke:black;" points="36,218 32,228 29,218 36,218"/>
</g>
<g id="node13" class="node"><title>j_0</title>
<ellipse cx="104" cy="246" rx="27" ry="18" style="fill:none;stroke:black;"/>
<text text-anchor="middle" x="104" y="251">&quot;n&quot;</text>
</g>
<g id="edge12" class="edge"><title>g_0-&gt;j_0</title>
<path style="fill:none;stroke:black;" d="M104,192C104,200 104,209 104,218"/>
<polygon style="fill:black;stroke:black;" points="108,218 104,228 101,218 108,218"/>
</g>
</g>
</svg>
