<?xml version="1.0" encoding="UTF-8" standalone="no"?>
<!DOCTYPE svg PUBLIC "-//W3C//DTD SVG 1.0//EN"
 "http://www.w3.org/TR/2001/REC-SVG-20010904/DTD/svg10.dtd" [
 <!ATTLIST svg xmlns:xlink CDATA #FIXED "http://www.w3.org/1999/xlink">
]>
<!-- Generated by dot version 2.4 (Wed Aug 24 12:27:28 UTC 2005)
     For user: (visser) Eelco Visser -->
<!-- Title: Term Pages: 1 -->
<svg width="208pt" height="262pt"
 viewBox = "0 0 208 262"
 xmlns="http://www.w3.org/2000/svg" xmlns:xlink="http://www.w3.org/1999/xlink">
<g id="graph0" class="graph" style="font-family:Times-Roman;font-size:14.00;">
<title>Term</title>
<!-- a_0 -->
<g id="node1" class="node"><title>a_0</title>
<ellipse style="fill:none;stroke:black;" cx="140" cy="23" rx="30" ry="18"/>
<text text-anchor="middle" x="140" y="28">Times</text>
</g>
<!-- c_0 -->
<g id="node3" class="node"><title>c_0</title>
<ellipse style="fill:none;stroke:black;" cx="104" cy="95" rx="27" ry="18"/>
<text text-anchor="middle" x="104" y="100">Plus</text>
</g>
<!-- a_0&#45;&gt;c_0 -->
<g id="edge2" class="edge"><title>a_0&#45;&gt;c_0</title>
<path style="fill:none;stroke:black;" d="M131,40C127,49 122,59 117,69"/>
<polygon style="fill:black;stroke:black;" points="120,70 113,78 114,67 120,70"/>
</g>
<!-- d_0 -->
<g id="node5" class="node"><title>d_0</title>
<ellipse style="fill:none;stroke:black;" cx="176" cy="95" rx="27" ry="18"/>
<text text-anchor="middle" x="176" y="100">Int</text>
</g>
<!-- a_0&#45;&gt;d_0 -->
<g id="edge4" class="edge"><title>a_0&#45;&gt;d_0</title>
<path style="fill:none;stroke:black;" d="M149,40C153,49 158,59 163,69"/>
<polygon style="fill:black;stroke:black;" points="166,67 167,78 160,70 166,67"/>
</g>
<!-- f_0 -->
<g id="node7" class="node"><title>f_0</title>
<ellipse style="fill:none;stroke:black;" cx="32" cy="167" rx="27" ry="18"/>
<text text-anchor="middle" x="32" y="172">Var</text>
</g>
<!-- c_0&#45;&gt;f_0 -->
<g id="edge6" class="edge"><title>c_0&#45;&gt;f_0</title>
<path style="fill:none;stroke:black;" d="M89,110C79,120 66,133 54,145"/>
<polygon style="fill:black;stroke:black;" points="57,147 47,152 52,142 57,147"/>
</g>
<!-- g_0 -->
<g id="node9" class="node"><title>g_0</title>
<ellipse style="fill:none;stroke:black;" cx="104" cy="167" rx="27" ry="18"/>
<text text-anchor="middle" x="104" y="172">Var</text>
</g>
<!-- c_0&#45;&gt;g_0 -->
<g id="edge8" class="edge"><title>c_0&#45;&gt;g_0</title>
<path style="fill:none;stroke:black;" d="M104,113C104,121 104,130 104,139"/>
<polygon style="fill:black;stroke:black;" points="108,139 104,149 101,139 108,139"/>
</g>
<!-- l_0 -->
<g id="node15" class="node"><title>l_0</title>
<ellipse style="fill:none;stroke:black;" cx="176" cy="167" rx="27" ry="18"/>
<text text-anchor="middle" x="176" y="172">&quot;1&quot;</text>
</g>
<!-- d_0&#45;&gt;l_0 -->
<g id="edge14" class="edge"><title>d_0&#45;&gt;l_0</title>
<path style="fill:none;stroke:black;" d="M176,113C176,121 176,130 176,139"/>
<polygon style="fill:black;stroke:black;" points="180,139 176,149 173,139 180,139"/>
</g>
<!-- i_0 -->
<g id="node11" class="node"><title>i_0</title>
<ellipse style="fill:none;stroke:black;" cx="32" cy="239" rx="27" ry="18"/>
<text text-anchor="middle" x="32" y="244">&quot;a&quot;</text>
</g>
<!-- f_0&#45;&gt;i_0 -->
<g id="edge10" class="edge"><title>f_0&#45;&gt;i_0</title>
<path style="fill:none;stroke:black;" d="M32,185C32,193 32,202 32,211"/>
<polygon style="fill:black;stroke:black;" points="36,211 32,221 29,211 36,211"/>
</g>
<!-- j_0 -->
<g id="node13" class="node"><title>j_0</title>
<ellipse style="fill:none;stroke:black;" cx="104" cy="239" rx="27" ry="18"/>
<text text-anchor="middle" x="104" y="244">&quot;n&quot;</text>
</g>
<!-- g_0&#45;&gt;j_0 -->
<g id="edge12" class="edge"><title>g_0&#45;&gt;j_0</title>
<path style="fill:none;stroke:black;" d="M104,185C104,193 104,202 104,211"/>
<polygon style="fill:black;stroke:black;" points="108,211 104,221 101,211 108,211"/>
</g>
</g>
</svg>
