<?xml version="1.0" encoding="UTF-8" standalone="no"?>
<!DOCTYPE svg PUBLIC "-//W3C//DTD SVG 1.0//EN"
 "http://www.w3.org/TR/2001/REC-SVG-20010904/DTD/svg10.dtd">
<!-- Generated by dot version 1.12 (Mon Oct  4 13:21:38 UTC 2004)
     For user: (martin) Martin Bravenboer   Title: Term    Pages: 1 -->
<svg width="471px" height="469px"
 viewBox = "-1 -1 353 351"
 xmlns="http://www.w3.org/2000/svg">
<g id="graph0" class="graph" style="font-family:Times-Roman;font-size:14.00;">
<title>Term</title>
<g id="node1" class="node"><title>a_0</title>
<ellipse cx="211" cy="30" rx="28" ry="18" style="fill:none;stroke:black;"/>
<text text-anchor="middle" x="211" y="35">Add</text>
</g>
<g id="node3" class="node"><title>b_0</title>
<ellipse cx="175" cy="102" rx="27" ry="18" style="fill:none;stroke:black;"/>
<text text-anchor="middle" x="175" y="107">Mul</text>
</g>
<g id="edge2" class="edge"><title>a_0-&gt;b_0</title>
<path style="fill:none;stroke:black;" d="M202,47C198,56 193,66 188,76"/>
<polygon style="fill:black;stroke:black;" points="191,77 184,85 185,74 191,77"/>
</g>
<g id="node5" class="node"><title>c_0</title>
<ellipse cx="248" cy="102" rx="28" ry="18" style="fill:none;stroke:black;"/>
<text text-anchor="middle" x="248" y="107">Add</text>
</g>
<g id="edge4" class="edge"><title>a_0-&gt;c_0</title>
<path style="fill:none;stroke:black;" d="M220,47C225,56 230,66 234,76"/>
<polygon style="fill:black;stroke:black;" points="237,75 239,85 231,78 237,75"/>
</g>
<g id="node7" class="node"><title>d_0</title>
<ellipse cx="103" cy="174" rx="28" ry="18" style="fill:none;stroke:black;"/>
<text text-anchor="middle" x="103" y="179">Add</text>
</g>
<g id="edge6" class="edge"><title>b_0-&gt;d_0</title>
<path style="fill:none;stroke:black;" d="M160,117C150,127 137,140 125,152"/>
<polygon style="fill:black;stroke:black;" points="128,154 118,159 123,149 128,154"/>
</g>
<g id="node9" class="node"><title>e_0</title>
<ellipse cx="176" cy="174" rx="27" ry="18" style="fill:none;stroke:black;"/>
<text text-anchor="middle" x="176" y="179">Var</text>
</g>
<g id="edge8" class="edge"><title>b_0-&gt;e_0</title>
<path style="fill:none;stroke:black;" d="M175,120C176,128 176,137 176,146"/>
<polygon style="fill:black;stroke:black;" points="180,146 176,156 173,146 180,146"/>
</g>
<g id="node21" class="node"><title>k_0</title>
<ellipse cx="248" cy="174" rx="27" ry="18" style="fill:none;stroke:black;"/>
<text text-anchor="middle" x="248" y="179">Var</text>
</g>
<g id="edge20" class="edge"><title>c_0-&gt;k_0</title>
<path style="fill:none;stroke:black;" d="M248,120C248,128 248,137 248,146"/>
<polygon style="fill:black;stroke:black;" points="252,146 248,156 245,146 252,146"/>
</g>
<g id="node23" class="node"><title>l_0</title>
<ellipse cx="320" cy="174" rx="27" ry="18" style="fill:none;stroke:black;"/>
<text text-anchor="middle" x="320" y="179">Var</text>
</g>
<g id="edge22" class="edge"><title>c_0-&gt;l_0</title>
<path style="fill:none;stroke:black;" d="M263,117C273,127 286,140 298,152"/>
<polygon style="fill:black;stroke:black;" points="300,149 305,159 295,154 300,149"/>
</g>
<g id="node11" class="node"><title>f_0</title>
<ellipse cx="32" cy="246" rx="27" ry="18" style="fill:none;stroke:black;"/>
<text text-anchor="middle" x="32" y="251">Var</text>
</g>
<g id="edge10" class="edge"><title>d_0-&gt;f_0</title>
<path style="fill:none;stroke:black;" d="M88,189C78,199 65,212 54,224"/>
<polygon style="fill:black;stroke:black;" points="57,226 47,231 52,221 57,226"/>
</g>
<g id="node13" class="node"><title>g_0</title>
<ellipse cx="104" cy="246" rx="27" ry="18" style="fill:none;stroke:black;"/>
<text text-anchor="middle" x="104" y="251">Var</text>
</g>
<g id="edge12" class="edge"><title>d_0-&gt;g_0</title>
<path style="fill:none;stroke:black;" d="M103,192C104,200 104,209 104,218"/>
<polygon style="fill:black;stroke:black;" points="108,218 104,228 101,218 108,218"/>
</g>
<g id="node19" class="node"><title>j_0</title>
<ellipse cx="176" cy="246" rx="27" ry="18" style="fill:none;stroke:black;"/>
<text text-anchor="middle" x="176" y="251">&quot;c&quot;</text>
</g>
<g id="edge18" class="edge"><title>e_0-&gt;j_0</title>
<path style="fill:none;stroke:black;" d="M176,192C176,200 176,209 176,218"/>
<polygon style="fill:black;stroke:black;" points="180,218 176,228 173,218 180,218"/>
</g>
<g id="node15" class="node"><title>h_0</title>
<ellipse cx="32" cy="318" rx="27" ry="18" style="fill:none;stroke:black;"/>
<text text-anchor="middle" x="32" y="323">&quot;a&quot;</text>
</g>
<g id="edge14" class="edge"><title>f_0-&gt;h_0</title>
<path style="fill:none;stroke:black;" d="M32,264C32,272 32,281 32,290"/>
<polygon style="fill:black;stroke:black;" points="36,290 32,300 29,290 36,290"/>
</g>
<g id="node17" class="node"><title>i_0</title>
<ellipse cx="104" cy="318" rx="27" ry="18" style="fill:none;stroke:black;"/>
<text text-anchor="middle" x="104" y="323">&quot;b&quot;</text>
</g>
<g id="edge16" class="edge"><title>g_0-&gt;i_0</title>
<path style="fill:none;stroke:black;" d="M104,264C104,272 104,281 104,290"/>
<polygon style="fill:black;stroke:black;" points="108,290 104,300 101,290 108,290"/>
</g>
<g id="node25" class="node"><title>m_0</title>
<ellipse cx="248" cy="246" rx="27" ry="18" style="fill:none;stroke:black;"/>
<text text-anchor="middle" x="248" y="251">&quot;a&quot;</text>
</g>
<g id="edge24" class="edge"><title>k_0-&gt;m_0</title>
<path style="fill:none;stroke:black;" d="M248,192C248,200 248,209 248,218"/>
<polygon style="fill:black;stroke:black;" points="252,218 248,228 245,218 252,218"/>
</g>
<g id="node27" class="node"><title>n_0</title>
<ellipse cx="320" cy="246" rx="27" ry="18" style="fill:none;stroke:black;"/>
<text text-anchor="middle" x="320" y="251">&quot;b&quot;</text>
</g>
<g id="edge26" class="edge"><title>l_0-&gt;n_0</title>
<path style="fill:none;stroke:black;" d="M320,192C320,200 320,209 320,218"/>
<polygon style="fill:black;stroke:black;" points="324,218 320,228 317,218 324,218"/>
</g>
</g>
</svg>
