<?xml version="1.0" encoding="UTF-8" standalone="no"?>
<!DOCTYPE svg PUBLIC "-//W3C//DTD SVG 1.0//EN"
 "http://www.w3.org/TR/2001/REC-SVG-20010904/DTD/svg10.dtd">
<!-- Generated by dot version 1.12 (Mon Oct  4 13:21:38 UTC 2004)
     For user: (martin) Martin Bravenboer   Title: Term    Pages: 1 -->
<svg width="279px" height="469px"
 viewBox = "-1 -1 209 351"
 xmlns="http://www.w3.org/2000/svg">
<g id="graph0" class="graph" style="font-family:Times-Roman;font-size:14.00;">
<title>Term</title>
<g id="node1" class="node"><title>node134605568</title>
<ellipse cx="130" cy="30" rx="28" ry="18" style="fill:none;stroke:black;"/>
<text text-anchor="middle" x="130" y="35">Add</text>
</g>
<g id="node3" class="node"><title>node134605504</title>
<ellipse cx="158" cy="102" rx="27" ry="18" style="fill:none;stroke:black;"/>
<text text-anchor="middle" x="158" y="107">Mul</text>
</g>
<g id="edge2" class="edge"><title>node134605568-&gt;node134605504</title>
<path style="fill:none;stroke:black;" d="M137,48C140,56 144,66 147,74"/>
<polygon style="fill:black;stroke:black;" points="151,73 151,84 144,76 151,73"/>
</g>
<g id="node5" class="node"><title>node134605408</title>
<ellipse cx="103" cy="174" rx="28" ry="18" style="fill:none;stroke:black;"/>
<text text-anchor="middle" x="103" y="179">Add</text>
</g>
<g id="edge4" class="edge"><title>node134605568-&gt;node134605408</title>
<path style="fill:none;stroke:black;" d="M127,48C122,73 113,117 108,146"/>
<polygon style="fill:black;stroke:black;" points="111,147 106,156 105,146 111,147"/>
</g>
<g id="edge6" class="edge"><title>node134605504-&gt;node134605408</title>
<path style="fill:none;stroke:black;" d="M146,118C139,127 129,139 121,150"/>
<polygon style="fill:black;stroke:black;" points="124,152 115,158 118,148 124,152"/>
</g>
<g id="node8" class="node"><title>node134841828</title>
<ellipse cx="176" cy="174" rx="27" ry="18" style="fill:none;stroke:black;"/>
<text text-anchor="middle" x="176" y="179">Var</text>
</g>
<g id="edge8" class="edge"><title>node134605504-&gt;node134841828</title>
<path style="fill:none;stroke:black;" d="M162,120C164,128 167,137 169,146"/>
<polygon style="fill:black;stroke:black;" points="172,145 172,156 166,147 172,145"/>
</g>
<g id="node12" class="node"><title>node134841804</title>
<ellipse cx="32" cy="246" rx="27" ry="18" style="fill:none;stroke:black;"/>
<text text-anchor="middle" x="32" y="251">Var</text>
</g>
<g id="edge12" class="edge"><title>node134605408-&gt;node134841804</title>
<path style="fill:none;stroke:black;" d="M88,189C78,199 65,212 54,224"/>
<polygon style="fill:black;stroke:black;" points="57,226 47,231 52,221 57,226"/>
</g>
<g id="node14" class="node"><title>node134841816</title>
<ellipse cx="104" cy="246" rx="27" ry="18" style="fill:none;stroke:black;"/>
<text text-anchor="middle" x="104" y="251">Var</text>
</g>
<g id="edge14" class="edge"><title>node134605408-&gt;node134841816</title>
<path style="fill:none;stroke:black;" d="M103,192C104,200 104,209 104,218"/>
<polygon style="fill:black;stroke:black;" points="108,218 104,228 101,218 108,218"/>
</g>
<g id="node10" class="node"><title>node134808952</title>
<ellipse cx="176" cy="246" rx="27" ry="18" style="fill:none;stroke:black;"/>
<text text-anchor="middle" x="176" y="251">&quot;c&quot;</text>
</g>
<g id="edge10" class="edge"><title>node134841828-&gt;node134808952</title>
<path style="fill:none;stroke:black;" d="M176,192C176,200 176,209 176,218"/>
<polygon style="fill:black;stroke:black;" points="180,218 176,228 173,218 180,218"/>
</g>
<g id="node16" class="node"><title>node134808240</title>
<ellipse cx="32" cy="318" rx="27" ry="18" style="fill:none;stroke:black;"/>
<text text-anchor="middle" x="32" y="323">&quot;a&quot;</text>
</g>
<g id="edge16" class="edge"><title>node134841804-&gt;node134808240</title>
<path style="fill:none;stroke:black;" d="M32,264C32,272 32,281 32,290"/>
<polygon style="fill:black;stroke:black;" points="36,290 32,300 29,290 36,290"/>
</g>
<g id="node18" class="node"><title>node134808944</title>
<ellipse cx="104" cy="318" rx="27" ry="18" style="fill:none;stroke:black;"/>
<text text-anchor="middle" x="104" y="323">&quot;b&quot;</text>
</g>
<g id="edge18" class="edge"><title>node134841816-&gt;node134808944</title>
<path style="fill:none;stroke:black;" d="M104,264C104,272 104,281 104,290"/>
<polygon style="fill:black;stroke:black;" points="108,290 104,300 101,290 108,290"/>
</g>
</g>
</svg>
