<?xml version="1.0" encoding="UTF-8" standalone="no"?>
<!DOCTYPE svg PUBLIC "-//W3C//DTD SVG 1.0//EN"
 "http://www.w3.org/TR/2001/REC-SVG-20010904/DTD/svg10.dtd" [
 <!ATTLIST svg xmlns:xlink CDATA #FIXED "http://www.w3.org/1999/xlink">
]>
<!-- Generated by dot version 2.4 (Wed Aug 24 12:27:28 UTC 2005)
     For user: (visser) Eelco Visser -->
<!-- Title: Term Pages: 1 -->
<svg width="352pt" height="334pt"
 viewBox = "0 0 352 334"
 xmlns="http://www.w3.org/2000/svg" xmlns:xlink="http://www.w3.org/1999/xlink">
<g id="graph0" class="graph" style="font-family:Times-Roman;font-size:14.00;">
<title>Term</title>
<!-- a_0 -->
<g id="node1" class="node"><title>a_0</title>
<ellipse style="fill:none;stroke:black;" cx="212" cy="23" rx="27" ry="18"/>
<text text-anchor="middle" x="212" y="28">Add</text>
</g>
<!-- b_0 -->
<g id="node3" class="node"><title>b_0</title>
<ellipse style="fill:none;stroke:black;" cx="176" cy="95" rx="27" ry="18"/>
<text text-anchor="middle" x="176" y="100">Mul</text>
</g>
<!-- a_0&#45;&gt;b_0 -->
<g id="edge2" class="edge"><title>a_0&#45;&gt;b_0</title>
<path style="fill:none;stroke:black;" d="M203,40C199,49 194,59 189,69"/>
<polygon style="fill:black;stroke:black;" points="192,70 185,78 186,67 192,70"/>
</g>
<!-- c_0 -->
<g id="node5" class="node"><title>c_0</title>
<ellipse style="fill:none;stroke:black;" cx="248" cy="95" rx="27" ry="18"/>
<text text-anchor="middle" x="248" y="100">Add</text>
</g>
<!-- a_0&#45;&gt;c_0 -->
<g id="edge4" class="edge"><title>a_0&#45;&gt;c_0</title>
<path style="fill:none;stroke:black;" d="M221,40C225,49 230,59 235,69"/>
<polygon style="fill:black;stroke:black;" points="238,67 239,78 232,70 238,67"/>
</g>
<!-- d_0 -->
<g id="node7" class="node"><title>d_0</title>
<ellipse style="fill:none;stroke:black;" cx="104" cy="167" rx="27" ry="18"/>
<text text-anchor="middle" x="104" y="172">Add</text>
</g>
<!-- b_0&#45;&gt;d_0 -->
<g id="edge6" class="edge"><title>b_0&#45;&gt;d_0</title>
<path style="fill:none;stroke:black;" d="M161,110C151,120 138,133 126,145"/>
<polygon style="fill:black;stroke:black;" points="129,147 119,152 124,142 129,147"/>
</g>
<!-- e_0 -->
<g id="node9" class="node"><title>e_0</title>
<ellipse style="fill:none;stroke:black;" cx="176" cy="167" rx="27" ry="18"/>
<text text-anchor="middle" x="176" y="172">Var</text>
</g>
<!-- b_0&#45;&gt;e_0 -->
<g id="edge8" class="edge"><title>b_0&#45;&gt;e_0</title>
<path style="fill:none;stroke:black;" d="M176,113C176,121 176,130 176,139"/>
<polygon style="fill:black;stroke:black;" points="180,139 176,149 173,139 180,139"/>
</g>
<!-- k_0 -->
<g id="node21" class="node"><title>k_0</title>
<ellipse style="fill:none;stroke:black;" cx="248" cy="167" rx="27" ry="18"/>
<text text-anchor="middle" x="248" y="172">Var</text>
</g>
<!-- c_0&#45;&gt;k_0 -->
<g id="edge20" class="edge"><title>c_0&#45;&gt;k_0</title>
<path style="fill:none;stroke:black;" d="M248,113C248,121 248,130 248,139"/>
<polygon style="fill:black;stroke:black;" points="252,139 248,149 245,139 252,139"/>
</g>
<!-- l_0 -->
<g id="node23" class="node"><title>l_0</title>
<ellipse style="fill:none;stroke:black;" cx="320" cy="167" rx="27" ry="18"/>
<text text-anchor="middle" x="320" y="172">Var</text>
</g>
<!-- c_0&#45;&gt;l_0 -->
<g id="edge22" class="edge"><title>c_0&#45;&gt;l_0</title>
<path style="fill:none;stroke:black;" d="M263,110C273,120 286,133 298,145"/>
<polygon style="fill:black;stroke:black;" points="300,142 305,152 295,147 300,142"/>
</g>
<!-- f_0 -->
<g id="node11" class="node"><title>f_0</title>
<ellipse style="fill:none;stroke:black;" cx="32" cy="239" rx="27" ry="18"/>
<text text-anchor="middle" x="32" y="244">Var</text>
</g>
<!-- d_0&#45;&gt;f_0 -->
<g id="edge10" class="edge"><title>d_0&#45;&gt;f_0</title>
<path style="fill:none;stroke:black;" d="M89,182C79,192 66,205 54,217"/>
<polygon style="fill:black;stroke:black;" points="57,219 47,224 52,214 57,219"/>
</g>
<!-- g_0 -->
<g id="node13" class="node"><title>g_0</title>
<ellipse style="fill:none;stroke:black;" cx="104" cy="239" rx="27" ry="18"/>
<text text-anchor="middle" x="104" y="244">Var</text>
</g>
<!-- d_0&#45;&gt;g_0 -->
<g id="edge12" class="edge"><title>d_0&#45;&gt;g_0</title>
<path style="fill:none;stroke:black;" d="M104,185C104,193 104,202 104,211"/>
<polygon style="fill:black;stroke:black;" points="108,211 104,221 101,211 108,211"/>
</g>
<!-- j_0 -->
<g id="node19" class="node"><title>j_0</title>
<ellipse style="fill:none;stroke:black;" cx="176" cy="239" rx="27" ry="18"/>
<text text-anchor="middle" x="176" y="244">&quot;c&quot;</text>
</g>
<!-- e_0&#45;&gt;j_0 -->
<g id="edge18" class="edge"><title>e_0&#45;&gt;j_0</title>
<path style="fill:none;stroke:black;" d="M176,185C176,193 176,202 176,211"/>
<polygon style="fill:black;stroke:black;" points="180,211 176,221 173,211 180,211"/>
</g>
<!-- h_0 -->
<g id="node15" class="node"><title>h_0</title>
<ellipse style="fill:none;stroke:black;" cx="32" cy="311" rx="27" ry="18"/>
<text text-anchor="middle" x="32" y="316">&quot;a&quot;</text>
</g>
<!-- f_0&#45;&gt;h_0 -->
<g id="edge14" class="edge"><title>f_0&#45;&gt;h_0</title>
<path style="fill:none;stroke:black;" d="M32,257C32,265 32,274 32,283"/>
<polygon style="fill:black;stroke:black;" points="36,283 32,293 29,283 36,283"/>
</g>
<!-- i_0 -->
<g id="node17" class="node"><title>i_0</title>
<ellipse style="fill:none;stroke:black;" cx="104" cy="311" rx="27" ry="18"/>
<text text-anchor="middle" x="104" y="316">&quot;b&quot;</text>
</g>
<!-- g_0&#45;&gt;i_0 -->
<g id="edge16" class="edge"><title>g_0&#45;&gt;i_0</title>
<path style="fill:none;stroke:black;" d="M104,257C104,265 104,274 104,283"/>
<polygon style="fill:black;stroke:black;" points="108,283 104,293 101,283 108,283"/>
</g>
<!-- m_0 -->
<g id="node25" class="node"><title>m_0</title>
<ellipse style="fill:none;stroke:black;" cx="248" cy="239" rx="27" ry="18"/>
<text text-anchor="middle" x="248" y="244">&quot;a&quot;</text>
</g>
<!-- k_0&#45;&gt;m_0 -->
<g id="edge24" class="edge"><title>k_0&#45;&gt;m_0</title>
<path style="fill:none;stroke:black;" d="M248,185C248,193 248,202 248,211"/>
<polygon style="fill:black;stroke:black;" points="252,211 248,221 245,211 252,211"/>
</g>
<!-- n_0 -->
<g id="node27" class="node"><title>n_0</title>
<ellipse style="fill:none;stroke:black;" cx="320" cy="239" rx="27" ry="18"/>
<text text-anchor="middle" x="320" y="244">&quot;b&quot;</text>
</g>
<!-- l_0&#45;&gt;n_0 -->
<g id="edge26" class="edge"><title>l_0&#45;&gt;n_0</title>
<path style="fill:none;stroke:black;" d="M320,185C320,193 320,202 320,211"/>
<polygon style="fill:black;stroke:black;" points="324,211 320,221 317,211 324,211"/>
</g>
</g>
</svg>
